<svg width="16" height="16" viewBox="0 0 16 16" fill="none" xmlns="http://www.w3.org/2000/svg">
<path d="M2.25684 10.3457V14H13.7363V10.3457H15.585V14.9248C15.5849 15.4351 15.1716 15.8486 14.6592 15.8486H1.33398C0.821097 15.8486 0.408288 15.4347 0.408203 14.9248V10.3457H2.25684Z" fill="#121212" stroke="#E8E8E8" stroke-width="0.3"/>
<path d="M6.64355 0.244141L6.63965 0.229492L6.63867 0.220703C6.63861 0.211809 6.64068 0.204092 6.64355 0.198242C6.64527 0.194756 6.6499 0.185827 6.66992 0.175781C6.69249 0.164487 6.73774 0.150416 6.82129 0.150391H9.26172C9.35762 0.150393 9.37674 0.182712 9.38086 0.189453C9.38586 0.197576 9.38917 0.207005 9.39062 0.214844L9.3916 0.22168V5.71387H11.1416C11.2443 5.71388 11.2905 5.72916 11.3086 5.7373C11.3079 5.73994 11.3079 5.74336 11.3066 5.74707C11.2953 5.78075 11.2686 5.82245 11.2383 5.86133C11.2242 5.87941 11.2107 5.89475 11.2012 5.90527C11.1966 5.91035 11.1928 5.91448 11.1904 5.91699L11.1797 5.92773L11.1738 5.93555L11.25 5.99316C11.1853 5.94446 11.1753 5.9376 11.1738 5.93652H11.1729L11.1719 5.93848C11.1706 5.94014 11.1685 5.943 11.166 5.94629C11.1611 5.95279 11.1539 5.96225 11.1445 5.97461C11.1253 6.00012 11.0967 6.0381 11.0605 6.08594C10.9883 6.18157 10.8852 6.31885 10.7598 6.48438C10.5088 6.81565 10.17 7.261 9.82031 7.71777C9.47057 8.17456 9.10953 8.64239 8.81348 9.01855C8.66354 9.20906 8.53196 9.37383 8.42773 9.50098L8.20508 9.75879V9.75977C8.15866 9.80647 8.12139 9.82035 8.09668 9.82422C8.07057 9.82828 8.0427 9.8229 8.01367 9.81055C7.9842 9.79792 7.95778 9.77894 7.9375 9.76172C7.92764 9.75334 7.91974 9.74601 7.91504 9.74121L7.91016 9.73633L4.83594 6.02148L4.83008 6.01465L4.80859 5.99316C4.7984 5.98273 4.78421 5.96726 4.76855 5.94922C4.73632 5.91205 4.70393 5.86999 4.68555 5.83301C4.70184 5.83025 4.72537 5.8252 4.75977 5.8252H6.64355V0.244141Z" fill="#121212" stroke="#E8E8E8" stroke-width="0.3"/>
</svg>
