<svg width="50" height="50" viewBox="0 0 50 50" fill="none" xmlns="http://www.w3.org/2000/svg">
<rect width="50" height="50" rx="5" fill="#D53D4C"/>
<path d="M35.6129 13.2119C35.6129 13.2119 38.2031 12.173 37.9872 14.696C37.9153 15.7348 37.2678 19.3708 36.7641 23.3037L35.0373 34.9537C35.0373 34.9537 34.8934 36.6604 33.5983 36.9573C32.3031 37.254 30.3605 35.9184 30.0007 35.6216C29.7129 35.399 24.6045 32.0598 22.8057 30.4273C22.3021 29.982 21.7265 29.0916 22.8777 28.0527L30.4325 20.6323C31.2959 19.7419 32.1593 17.6642 28.5617 20.1871L18.4887 27.2365C18.4887 27.2365 17.3375 27.9785 15.1791 27.3107L10.5023 25.8266C10.5023 25.8266 8.77547 24.7136 11.7254 23.6004C18.9205 20.1128 27.7703 16.551 35.6129 13.2119Z" fill="#E8E8E8"/>
</svg>
